<mxfile host="app.diagrams.net" modified="2023-10-29T09:07:59.612Z" agent="Mozilla/5.0 (Windows NT 10.0; Win64; x64) AppleWebKit/537.36 (KHTML, like Gecko) Chrome/118.0.0.0 Safari/537.36" etag="QRXx7kRl9jMwJJXYLowp" version="22.0.8" type="device">
  <diagram name="Halaman-1" id="1nc28jSzTPdm_pfPCFTR">
    <mxGraphModel dx="836" dy="528" grid="1" gridSize="10" guides="1" tooltips="1" connect="1" arrows="1" fold="1" page="1" pageScale="1" pageWidth="1169" pageHeight="2000" math="0" shadow="0">
      <root>
        <mxCell id="0" />
        <mxCell id="1" parent="0" />
        <mxCell id="ZSAQHpN-eL0URogZfKka-9" style="edgeStyle=orthogonalEdgeStyle;rounded=0;orthogonalLoop=1;jettySize=auto;html=1;entryX=0;entryY=0.5;entryDx=0;entryDy=0;" edge="1" parent="1" source="ZSAQHpN-eL0URogZfKka-1" target="ZSAQHpN-eL0URogZfKka-6">
          <mxGeometry relative="1" as="geometry" />
        </mxCell>
        <mxCell id="ZSAQHpN-eL0URogZfKka-1" value="Start Program" style="rounded=1;whiteSpace=wrap;html=1;" vertex="1" parent="1">
          <mxGeometry x="420" y="52.5" width="130" height="55" as="geometry" />
        </mxCell>
        <mxCell id="ZSAQHpN-eL0URogZfKka-5" style="edgeStyle=orthogonalEdgeStyle;rounded=0;orthogonalLoop=1;jettySize=auto;html=1;" edge="1" parent="1" source="ZSAQHpN-eL0URogZfKka-4" target="ZSAQHpN-eL0URogZfKka-1">
          <mxGeometry relative="1" as="geometry" />
        </mxCell>
        <mxCell id="ZSAQHpN-eL0URogZfKka-4" value="Input code" style="shape=parallelogram;perimeter=parallelogramPerimeter;whiteSpace=wrap;html=1;fixedSize=1;" vertex="1" parent="1">
          <mxGeometry x="240" y="50" width="120" height="60" as="geometry" />
        </mxCell>
        <mxCell id="ZSAQHpN-eL0URogZfKka-11" value="Yes" style="edgeStyle=orthogonalEdgeStyle;rounded=0;orthogonalLoop=1;jettySize=auto;html=1;entryX=0;entryY=0.5;entryDx=0;entryDy=0;" edge="1" parent="1">
          <mxGeometry relative="1" as="geometry">
            <mxPoint x="720.9999999999998" y="80" as="sourcePoint" />
            <mxPoint x="810.9999999999998" y="80" as="targetPoint" />
          </mxGeometry>
        </mxCell>
        <mxCell id="ZSAQHpN-eL0URogZfKka-13" style="edgeStyle=orthogonalEdgeStyle;rounded=0;orthogonalLoop=1;jettySize=auto;html=1;entryX=0.5;entryY=0;entryDx=0;entryDy=0;" edge="1" parent="1" source="ZSAQHpN-eL0URogZfKka-6" target="ZSAQHpN-eL0URogZfKka-12">
          <mxGeometry relative="1" as="geometry">
            <Array as="points">
              <mxPoint x="680" y="130" />
              <mxPoint x="60" y="130" />
            </Array>
          </mxGeometry>
        </mxCell>
        <mxCell id="ZSAQHpN-eL0URogZfKka-14" value="No" style="edgeLabel;html=1;align=center;verticalAlign=middle;resizable=0;points=[];" vertex="1" connectable="0" parent="ZSAQHpN-eL0URogZfKka-13">
          <mxGeometry x="-0.142" y="-1" relative="1" as="geometry">
            <mxPoint x="-1" as="offset" />
          </mxGeometry>
        </mxCell>
        <mxCell id="ZSAQHpN-eL0URogZfKka-6" value="End of file?" style="rhombus;whiteSpace=wrap;html=1;" vertex="1" parent="1">
          <mxGeometry x="640" y="40" width="80" height="80" as="geometry" />
        </mxCell>
        <mxCell id="ZSAQHpN-eL0URogZfKka-10" value="Stop Program" style="rounded=1;whiteSpace=wrap;html=1;" vertex="1" parent="1">
          <mxGeometry x="810" y="51.25" width="120" height="57.5" as="geometry" />
        </mxCell>
        <mxCell id="ZSAQHpN-eL0URogZfKka-12" value="Type of&lt;br&gt;program?" style="rhombus;whiteSpace=wrap;html=1;" vertex="1" parent="1">
          <mxGeometry x="20" y="160" width="80" height="80" as="geometry" />
        </mxCell>
        <mxCell id="ZSAQHpN-eL0URogZfKka-15" value="Inisialitation" style="rhombus;whiteSpace=wrap;html=1;" vertex="1" parent="1">
          <mxGeometry x="125" y="160" width="80" height="80" as="geometry" />
        </mxCell>
        <mxCell id="ZSAQHpN-eL0URogZfKka-16" value="Input" style="rhombus;whiteSpace=wrap;html=1;" vertex="1" parent="1">
          <mxGeometry x="125" y="680" width="80" height="80" as="geometry" />
        </mxCell>
        <mxCell id="ZSAQHpN-eL0URogZfKka-17" value="Output" style="rhombus;whiteSpace=wrap;html=1;" vertex="1" parent="1">
          <mxGeometry x="125" y="480" width="80" height="80" as="geometry" />
        </mxCell>
        <mxCell id="ZSAQHpN-eL0URogZfKka-18" value="Label" style="rhombus;whiteSpace=wrap;html=1;" vertex="1" parent="1">
          <mxGeometry x="125" y="790" width="80" height="80" as="geometry" />
        </mxCell>
        <mxCell id="ZSAQHpN-eL0URogZfKka-23" value="Condition" style="rhombus;whiteSpace=wrap;html=1;" vertex="1" parent="1">
          <mxGeometry x="125" y="920" width="80" height="80" as="geometry" />
        </mxCell>
        <mxCell id="ZSAQHpN-eL0URogZfKka-24" value="Looping" style="rhombus;whiteSpace=wrap;html=1;" vertex="1" parent="1">
          <mxGeometry x="125" y="1030" width="80" height="80" as="geometry" />
        </mxCell>
        <mxCell id="ZSAQHpN-eL0URogZfKka-25" value="Array" style="rhombus;whiteSpace=wrap;html=1;" vertex="1" parent="1">
          <mxGeometry x="125" y="1150" width="80" height="80" as="geometry" />
        </mxCell>
        <mxCell id="ZSAQHpN-eL0URogZfKka-26" value="Function" style="rhombus;whiteSpace=wrap;html=1;" vertex="1" parent="1">
          <mxGeometry x="125" y="1288" width="80" height="80" as="geometry" />
        </mxCell>
        <mxCell id="ZSAQHpN-eL0URogZfKka-27" value="Type of&lt;br&gt;inisial?" style="rhombus;whiteSpace=wrap;html=1;" vertex="1" parent="1">
          <mxGeometry x="260" y="270" width="80" height="80" as="geometry" />
        </mxCell>
        <mxCell id="ZSAQHpN-eL0URogZfKka-28" value="Input&lt;br&gt;variable" style="rhombus;whiteSpace=wrap;html=1;" vertex="1" parent="1">
          <mxGeometry x="420" y="260" width="80" height="80" as="geometry" />
        </mxCell>
        <mxCell id="ZSAQHpN-eL0URogZfKka-29" value="Refill&lt;br&gt;variable" style="rhombus;whiteSpace=wrap;html=1;" vertex="1" parent="1">
          <mxGeometry x="420" y="160" width="80" height="80" as="geometry" />
        </mxCell>
        <mxCell id="ZSAQHpN-eL0URogZfKka-30" value="Operation&lt;br&gt;variable" style="rhombus;whiteSpace=wrap;html=1;" vertex="1" parent="1">
          <mxGeometry x="420" y="360" width="80" height="80" as="geometry" />
        </mxCell>
        <mxCell id="ZSAQHpN-eL0URogZfKka-31" value="Type of&lt;br&gt;variable" style="rounded=0;whiteSpace=wrap;html=1;" vertex="1" parent="1">
          <mxGeometry x="255" y="180" width="90" height="40" as="geometry" />
        </mxCell>
        <mxCell id="ZSAQHpN-eL0URogZfKka-32" value="Insert variable in&lt;br&gt;stack variable" style="rounded=0;whiteSpace=wrap;html=1;" vertex="1" parent="1">
          <mxGeometry x="555" y="275" width="100" height="50" as="geometry" />
        </mxCell>
        <mxCell id="ZSAQHpN-eL0URogZfKka-33" value="Change variable in&lt;br&gt;stack variable" style="rounded=0;whiteSpace=wrap;html=1;" vertex="1" parent="1">
          <mxGeometry x="555" y="175" width="110" height="50" as="geometry" />
        </mxCell>
        <mxCell id="ZSAQHpN-eL0URogZfKka-34" value="Change the infix form to postfix" style="rounded=0;whiteSpace=wrap;html=1;" vertex="1" parent="1">
          <mxGeometry x="555" y="375" width="100" height="50" as="geometry" />
        </mxCell>
        <mxCell id="ZSAQHpN-eL0URogZfKka-35" value="Perform calculation operations according to the variable type" style="rounded=0;whiteSpace=wrap;html=1;" vertex="1" parent="1">
          <mxGeometry x="715" y="370" width="120" height="60" as="geometry" />
        </mxCell>
        <mxCell id="ZSAQHpN-eL0URogZfKka-36" value="Output&lt;br&gt;from?" style="rhombus;whiteSpace=wrap;html=1;" vertex="1" parent="1">
          <mxGeometry x="255" y="480" width="80" height="80" as="geometry" />
        </mxCell>
        <mxCell id="ZSAQHpN-eL0URogZfKka-37" value="Direct&lt;br&gt;from user" style="rhombus;whiteSpace=wrap;html=1;" vertex="1" parent="1">
          <mxGeometry x="380" y="480" width="80" height="80" as="geometry" />
        </mxCell>
        <mxCell id="ZSAQHpN-eL0URogZfKka-38" value="From&lt;br&gt;variable" style="rhombus;whiteSpace=wrap;html=1;" vertex="1" parent="1">
          <mxGeometry x="380" y="580" width="80" height="80" as="geometry" />
        </mxCell>
        <mxCell id="ZSAQHpN-eL0URogZfKka-39" value="Output from teks&lt;br&gt;between double quotes" style="rounded=0;whiteSpace=wrap;html=1;" vertex="1" parent="1">
          <mxGeometry x="510" y="490" width="120" height="60" as="geometry" />
        </mxCell>
        <mxCell id="ZSAQHpN-eL0URogZfKka-40" value="Output from stack variable" style="rounded=0;whiteSpace=wrap;html=1;" vertex="1" parent="1">
          <mxGeometry x="510" y="590" width="120" height="60" as="geometry" />
        </mxCell>
        <mxCell id="ZSAQHpN-eL0URogZfKka-42" value="Input until enter" style="shape=parallelogram;perimeter=parallelogramPerimeter;whiteSpace=wrap;html=1;fixedSize=1;" vertex="1" parent="1">
          <mxGeometry x="240" y="690" width="120" height="60" as="geometry" />
        </mxCell>
        <mxCell id="ZSAQHpN-eL0URogZfKka-43" value="Set inisialitation" style="rounded=0;whiteSpace=wrap;html=1;" vertex="1" parent="1">
          <mxGeometry x="400" y="690" width="120" height="60" as="geometry" />
        </mxCell>
      </root>
    </mxGraphModel>
  </diagram>
</mxfile>
